OpenSim_Sub03_CSBaseline_GRF.mot
version=1
nRows=53
nColumns=19
inDegrees=no
endheader
time	lFx	lFy	lFz	lCOPx	lCOPy	lCOPz	rFx	rFy	rFz	rCOPx	rCOPy	rCOPz	lMx	lMy	lMz	rMx	rMy	rMz
0	15.16579383	390.40867166	37.12043925	0.60742722	0	-0.63624302	-2.26378544	361.68174307	-32.21673495	0.64947476	0	-0.34594497	0	0.36013270	0	0	1.27665294	0
0.01000000	15.07473412	391.63092305	37.15773277	0.60717325	0	-0.63660686	-2.35453897	361.89197945	-32.30026590	0.64960415	0	-0.34575941	0	0.45948515	0	0	1.19852862	-0.00000000
0.02000000	14.92316299	392.84623223	37.20195086	0.60714716	0	-0.63690621	-2.42593315	362.06472470	-32.39129895	0.64989652	0	-0.34562642	0	0.53211240	0	0	1.12801229	0
0.03000000	14.67539717	393.83970339	37.26965263	0.60728672	0	-0.63712148	-2.45879394	362.11398147	-32.45131282	0.65027374	0	-0.34555293	0	0.56178817	0	0	1.05153673	0.00000000
0.04000000	14.32542992	394.48513470	37.35399139	0.60763470	0	-0.63730148	-2.45574573	362.04083294	-32.48555865	0.65066128	0	-0.34552210	0	0.57154570	0	0	0.97784601	0
0.05000000	13.90956045	394.71041506	37.42539228	0.60817148	0	-0.63748437	-2.45320217	361.83346274	-32.50031077	0.65092057	0	-0.34548320	0	0.58923992	0	0	0.93637219	-0.00000000
0.06000000	13.52185858	394.55751989	37.47037641	0.60872210	0	-0.63766369	-2.46310060	361.50291978	-32.47410845	0.65110914	0	-0.34541098	0	0.60838604	0	0	0.92660811	-0.00000000
0.07000000	13.26684353	394.16808816	37.48039533	0.60922310	0	-0.63784337	-2.45615917	361.13503481	-32.39670687	0.65142253	0	-0.34532523	0	0.61128380	0	0	0.91580863	0
0.08000000	13.17235545	393.68532178	37.47018357	0.60962501	0	-0.63799869	-2.41054585	360.81014212	-32.30749692	0.65180028	0	-0.34522927	0	0.59148230	0	0	0.90468776	0
0.09000000	13.21644174	393.29100088	37.45120255	0.60994501	0	-0.63811414	-2.32084518	360.57885761	-32.25077485	0.65222583	0	-0.34514067	0	0.56264342	0	0	0.90449334	-0.00000000
0.10000000	13.32672193	393.12157975	37.42807236	0.61020433	0	-0.63819883	-2.19003219	360.46385978	-32.23608813	0.65273184	0	-0.34507980	0	0.54188811	0	0	0.90823215	-0.00000000
0.11000000	13.41371694	393.18143887	37.40255611	0.61048687	0	-0.63826922	-2.00641452	360.45472031	-32.24155873	0.65327054	0	-0.34502422	0	0.53197337	0	0	0.90585851	0
0.12000000	13.41962609	393.41423377	37.37534513	0.61086020	0	-0.63837711	-1.79337744	360.50456901	-32.25323469	0.65386176	0	-0.34495018	0	0.52867025	0	0	0.89257904	0.00000000
0.13000000	13.32248235	393.63491975	37.34835199	0.61120480	0	-0.63852941	-1.64258629	360.58066103	-32.25719575	0.65438025	0	-0.34484189	0	0.52622891	0	0	0.87439916	0
0.14000000	13.18283005	393.70295388	37.31805497	0.61154984	0	-0.63871889	-1.63221724	360.65527377	-32.22516131	0.65469755	0	-0.34469822	0	0.51845734	0	0	0.87348865	0.00000000
0.15000000	13.05627122	393.66709182	37.29874370	0.61196902	0	-0.63892570	-1.78139047	360.75905817	-32.16182030	0.65479230	0	-0.34452542	0	0.51874824	0	0	0.91073755	0.00000000
0.16000000	12.95477191	393.69217318	37.31829513	0.61237745	0	-0.63913596	-2.09077534	360.95178404	-32.10939858	0.65481121	0	-0.34430294	0	0.53453448	0	0	0.96668111	0
0.17000000	12.87099911	393.88020167	37.37917623	0.61283559	0	-0.63936824	-2.51698520	361.21745313	-32.13972684	0.65501325	0	-0.34405365	0	0.55407403	0	0	1.00397308	0
0.18000000	12.79187537	394.23847901	37.46374303	0.61340427	0	-0.63963744	-2.97094354	361.44921778	-32.27118056	0.65548447	0	-0.34379080	0	0.56676038	0	0	1.01731926	0
0.19000000	12.66766100	394.66083738	37.53030464	0.61413986	0	-0.63994127	-3.36087961	361.52433666	-32.44373145	0.65613113	0	-0.34348991	0	0.57562606	0	0	1.01937426	0
0.20000000	12.45043889	394.94832117	37.58115509	0.61504056	0	-0.64026043	-3.63455780	361.44447148	-32.59852793	0.65700683	0	-0.34317197	0	0.56478610	0	0	1.00855877	-0.00000000
0.21000000	12.16866183	394.90404280	37.60786016	0.61598968	0	-0.64056534	-3.80825187	361.25604748	-32.70820765	0.65811701	0	-0.34287430	0	0.52981951	0	0	0.99429532	-0.00000000
0.22000000	11.87253768	394.46624588	37.58173305	0.61679803	0	-0.64081557	-3.91725303	361.04889413	-32.77465321	0.65932968	0	-0.34258834	0	0.47648254	0	0	0.98257996	-0.00000000
0.23000000	11.58345266	393.84298716	37.51701264	0.61742264	0	-0.64100310	-4.03276913	360.85596832	-32.79019095	0.66037891	0	-0.34232321	0	0.40257129	0	0	0.97292494	0
0.24000000	11.32744439	393.39459502	37.44969256	0.61792966	0	-0.64116102	-4.21133050	360.67664892	-32.75344339	0.66110252	0	-0.34209411	0	0.33922597	0	0	0.96988537	0.00000000
0.25000000	11.10648318	393.30935252	37.42863796	0.61838732	0	-0.64132271	-4.43291165	360.55921315	-32.71053562	0.66163936	0	-0.34187542	0	0.29293961	0	0	0.97933345	0
0.26000000	10.91699935	393.44712789	37.46411812	0.61881016	0	-0.64147156	-4.66417805	360.52158151	-32.71037569	0.66216338	0	-0.34165315	0	0.24802282	0	0	0.99489654	0
0.27000000	10.79019392	393.60150737	37.52229765	0.61918268	0	-0.64159647	-4.89247286	360.57575898	-32.77812526	0.66273717	0	-0.34142917	0	0.21748950	0	0	1.01038855	-0.00000000
0.28000000	10.73045705	393.69089319	37.54401033	0.61949982	0	-0.64172867	-5.13557488	360.74296533	-32.92344718	0.66332552	0	-0.34119749	0	0.21471125	0	0	1.02676830	0.00000000
0.29000000	10.73778106	393.77307174	37.52309880	0.61979954	0	-0.64189071	-5.40322716	360.94762685	-33.10508171	0.66401240	0	-0.34092143	0	0.20798148	0	0	1.04388544	0
0.30000000	10.78025938	393.90000842	37.50174249	0.62019470	0	-0.64205276	-5.65347090	361.02743025	-33.25674916	0.66489396	0	-0.34062269	0	0.18170238	0	0	1.05480287	0
0.31000000	10.79078365	394.08320659	37.51310619	0.62064157	0	-0.64219788	-5.83389433	360.90817537	-33.34368482	0.66591396	0	-0.34036145	0	0.15735482	0	0	1.04325891	0
0.32000000	10.70651229	394.28756957	37.57788879	0.62101278	0	-0.64235098	-5.93369587	360.62843343	-33.35327419	0.66697681	0	-0.34015587	0	0.13848428	0	0	1.00420859	0
0.33000000	10.53638639	394.39804122	37.68210475	0.62125862	0	-0.64253624	-5.98859185	360.30847824	-33.30656440	0.66802627	0	-0.33998030	0	0.10785614	0	0	0.95909366	0.00000000
0.34000000	10.35762579	394.36171558	37.79115042	0.62141271	0	-0.64269662	-6.03840416	360.09140855	-33.26743037	0.66896624	0	-0.33981362	0	0.07465791	0	0	0.91812650	0
0.35000000	10.24240454	394.23517683	37.89009506	0.62162182	0	-0.64278544	-6.12394685	360.01304387	-33.27376308	0.66973534	0	-0.33964838	0	0.04076925	0	0	0.88063239	0
0.36000000	10.18320688	394.09914370	37.95839066	0.62193691	0	-0.64286233	-6.23908174	360.01268177	-33.32741120	0.67036212	0	-0.33948076	0	0.01096213	0	0	0.84233609	0.00000000
0.37000000	10.14289469	394.05720922	37.99306874	0.62236365	0	-0.64297109	-6.34848075	360.03387951	-33.42182752	0.67086429	0	-0.33931134	0	-0.00033932	0	0	0.80906296	0
0.38000000	10.10699803	394.16772714	38.02334727	0.62290680	0	-0.64311824	-6.44780728	360.05211602	-33.53903496	0.67131883	0	-0.33913943	0	-0.00205718	0	0	0.79075566	-0.00000000
0.39000000	10.07967762	394.38240996	38.06746693	0.62347756	0	-0.64330975	-6.52981447	360.04295091	-33.65401614	0.67174079	0	-0.33896896	0	-0.00635961	0	0	0.78665172	0
0.40000000	10.05524431	394.60418294	38.12970197	0.62400405	0	-0.64348329	-6.57942499	360.00512665	-33.72705404	0.67211883	0	-0.33881469	0	-0.02231425	0	0	0.78648858	0
0.41000000	10.00737033	394.79626095	38.20122906	0.62442171	0	-0.64360428	-6.60561382	359.94143385	-33.74862006	0.67240902	0	-0.33870207	0	-0.05352459	0	0	0.80095757	0
0.42000000	9.92048950	394.98763086	38.27776556	0.62481000	0	-0.64369431	-6.59782010	359.85748369	-33.74750525	0.67256054	0	-0.33863892	0	-0.09315396	0	0	0.83337031	0
0.43000000	9.80654958	395.13073907	38.33602220	0.62519739	0	-0.64381729	-6.56988294	359.80404478	-33.74439937	0.67267786	0	-0.33862306	0	-0.12072020	0	0	0.85550396	0
0.44000000	9.68388055	395.09184169	38.35836525	0.62554046	0	-0.64397698	-6.55069928	359.85533466	-33.74966973	0.67284665	0	-0.33859975	0	-0.13467854	0	0	0.85175914	0
0.45000000	9.58635975	394.91056118	38.36136746	0.62591487	0	-0.64415553	-6.54214352	359.96953876	-33.74470474	0.67306607	0	-0.33850779	0	-0.14657524	0	0	0.82951710	0
0.46000000	9.51812501	394.68740034	38.37889872	0.62634913	0	-0.64430459	-6.52588435	360.02528827	-33.72433928	0.67343770	0	-0.33837861	0	-0.15643730	0	0	0.81037990	0.00000000
0.47000000	9.45981629	394.48328934	38.42104609	0.62679788	0	-0.64440572	-6.48441743	359.95939962	-33.71237112	0.67395752	0	-0.33825887	0	-0.16573436	0	0	0.79965300	-0.00000000
0.48000000	9.39040765	394.37734571	38.49213732	0.62716189	0	-0.64447430	-6.42869308	359.78846918	-33.72196338	0.67444730	0	-0.33815327	0	-0.16955915	0	0	0.80220763	0
0.49000000	9.29290197	394.43863288	38.55961812	0.62745233	0	-0.64455233	-6.38006116	359.63859703	-33.76712028	0.67487456	0	-0.33808208	0	-0.16886933	0	0	0.79974372	0
0.50000000	9.20011361	394.71554752	38.62931641	0.62776329	0	-0.64464752	-6.37839593	359.68100598	-33.84152911	0.67521066	0	-0.33803804	0	-0.17958750	0	0	0.80554703	0
0.51000000	9.15705758	395.20164536	38.72055457	0.62804430	0	-0.64473026	-6.45767203	359.94978624	-33.92648106	0.67533546	0	-0.33798186	0	-0.21507374	0	0	0.84152916	0
0.52000000	9.15129366	395.89476815	38.82584865	0.62828678	0	-0.64481243	-6.60755068	360.31648508	-34.02666479	0.67527220	0	-0.33789541	0	-0.24598829	0	0	0.89346267	0
